<svg width="131" height="22" viewBox="0 0 131 22" fill="none" xmlns="http://www.w3.org/2000/svg">
<path d="M15.08 1.02L15.68 20.91L10.22 21.27L10.28 17.91H6.74L5.75 21H0.29L8.21 1.29L15.08 1.02ZM10.4 13.68L10.61 6.18H10.55L8.12 13.68H10.4ZM20.2072 1.2C20.7472 1.16 21.5472 1.11 22.6072 1.05C23.6872 0.989999 24.9772 0.959999 26.4772 0.959999C27.5772 0.959999 28.4972 1.05 29.2372 1.23C29.9972 1.41 30.6072 1.71 31.0672 2.13C31.5472 2.53 31.8872 3.07 32.0872 3.75C32.3072 4.41 32.4172 5.23 32.4172 6.21C32.4172 7.11 32.3472 8.08 32.2072 9.12C32.0872 10.14 31.9172 11.2 31.6972 12.3C31.3772 13.9 31.0072 15.26 30.5872 16.38C30.1672 17.48 29.6272 18.38 28.9672 19.08C28.3072 19.78 27.5072 20.29 26.5672 20.61C25.6272 20.93 24.4872 21.09 23.1472 21.09C21.6472 21.09 20.3272 21.07 19.1872 21.03C18.0672 21.01 17.2072 20.98 16.6072 20.94L20.2072 1.2ZM22.7872 16.53H23.6272C23.9872 16.53 24.2872 16.47 24.5272 16.35C24.7872 16.21 25.0072 15.98 25.1872 15.66C25.3672 15.32 25.5372 14.87 25.6972 14.31C25.8572 13.75 26.0272 13.04 26.2072 12.18C26.2872 11.74 26.3772 11.25 26.4772 10.71C26.5772 10.17 26.6672 9.61 26.7472 9.03C26.8272 8.45 26.8972 7.87 26.9572 7.29C27.0172 6.69 27.0672 6.12 27.1072 5.58C26.7672 5.52 26.4572 5.49 26.1772 5.49C25.8372 5.49 25.5572 5.5 25.3372 5.52C25.1372 5.54 24.9872 5.56 24.8872 5.58L22.7872 16.53ZM35.5588 1.2C36.0988 1.16 36.8988 1.11 37.9588 1.05C39.0388 0.989999 40.3288 0.959999 41.8288 0.959999C42.9288 0.959999 43.8488 1.05 44.5888 1.23C45.3488 1.41 45.9588 1.71 46.4188 2.13C46.8988 2.53 47.2388 3.07 47.4388 3.75C47.6588 4.41 47.7688 5.23 47.7688 6.21C47.7688 7.11 47.6988 8.08 47.5588 9.12C47.4388 10.14 47.2688 11.2 47.0488 12.3C46.7288 13.9 46.3588 15.26 45.9388 16.38C45.5188 17.48 44.9788 18.38 44.3188 19.08C43.6588 19.78 42.8588 20.29 41.9188 20.61C40.9788 20.93 39.8388 21.09 38.4988 21.09C36.9988 21.09 35.6788 21.07 34.5388 21.03C33.4188 21.01 32.5587 20.98 31.9587 20.94L35.5588 1.2ZM38.1388 16.53H38.9788C39.3388 16.53 39.6388 16.47 39.8788 16.35C40.1388 16.21 40.3588 15.98 40.5388 15.66C40.7188 15.32 40.8888 14.87 41.0488 14.31C41.2088 13.75 41.3788 13.04 41.5588 12.18C41.6388 11.74 41.7288 11.25 41.8288 10.71C41.9288 10.17 42.0188 9.61 42.0988 9.03C42.1788 8.45 42.2488 7.87 42.3088 7.29C42.3688 6.69 42.4188 6.12 42.4588 5.58C42.1188 5.52 41.8088 5.49 41.5288 5.49C41.1888 5.49 40.9088 5.5 40.6888 5.52C40.4888 5.54 40.3388 5.56 40.2388 5.58L38.1388 16.53ZM55.0119 1.2C55.4319 1.16 55.9619 1.13 56.6019 1.11C57.2419 1.07 57.9019 1.04 58.5819 1.02C59.2619 0.999999 59.9219 0.989998 60.5619 0.989998C61.2219 0.969999 61.7719 0.959999 62.2119 0.959999C64.0519 0.959999 65.3519 1.34 66.1119 2.1C66.8719 2.86 67.2519 3.94 67.2519 5.34C67.2519 5.56 67.2419 5.77 67.2219 5.97C67.2219 6.17 67.2119 6.38 67.1919 6.6C67.1719 6.8 67.1419 7.03 67.1019 7.29C67.0819 7.53 67.0519 7.82 67.0119 8.16C66.8519 9.24 66.6319 10.24 66.3519 11.16C66.0719 12.06 65.6819 12.85 65.1819 13.53C64.6819 14.21 64.0419 14.75 63.2619 15.15C62.5019 15.53 61.5519 15.75 60.4119 15.81L57.7419 15.93L56.8419 21H51.3819L55.0119 1.2ZM60.8919 5.49C60.6919 5.49 60.4519 5.51 60.1719 5.55C59.8919 5.57 59.7119 5.59 59.6319 5.61L58.5819 11.4L59.5119 11.34C59.7919 11.32 60.0319 11.28 60.2319 11.22C60.4319 11.16 60.6119 11.05 60.7719 10.89C60.9319 10.73 61.0719 10.49 61.1919 10.17C61.3119 9.85 61.4219 9.43 61.5219 8.91C61.6619 8.21 61.7519 7.62 61.7919 7.14C61.8519 6.66 61.8919 6.13 61.9119 5.55C61.7719 5.53 61.6119 5.52 61.4319 5.52C61.2519 5.5 61.0719 5.49 60.8919 5.49ZM78.8593 1.02L79.4593 20.91L73.9993 21.27L74.0593 17.91H70.5193L69.5293 21H64.0693L71.9893 1.29L78.8593 1.02ZM74.1793 13.68L74.3893 6.18H74.3293L71.8993 13.68H74.1793ZM83.9865 1.2C84.3865 1.16 84.8865 1.13 85.4865 1.11C86.1065 1.07 86.7365 1.04 87.3765 1.02C88.0365 0.999999 88.6765 0.989998 89.2965 0.989998C89.9165 0.969999 90.4465 0.959999 90.8865 0.959999C91.8665 0.959999 92.6965 1.06 93.3765 1.26C94.0565 1.44 94.6065 1.72 95.0265 2.1C95.4465 2.46 95.7465 2.92 95.9265 3.48C96.1265 4.02 96.2265 4.64 96.2265 5.34C96.2265 5.56 96.2265 5.75 96.2265 5.91C96.2265 6.07 96.2165 6.24 96.1965 6.42C96.1765 6.58 96.1565 6.77 96.1365 6.99C96.1165 7.21 96.0765 7.49 96.0165 7.83C95.7965 9.33 95.4365 10.55 94.9365 11.49C94.4565 12.43 93.7265 13.13 92.7465 13.59L94.3365 20.91L88.7265 21.27L87.6765 14.61L86.9565 14.64L85.8165 21H80.3565L83.9865 1.2ZM89.8665 5.49C89.6665 5.49 89.4265 5.51 89.1465 5.55C88.8665 5.57 88.6865 5.59 88.6065 5.61L87.6765 10.74L88.6065 10.71C88.8865 10.71 89.1265 10.69 89.3265 10.65C89.5265 10.61 89.6965 10.53 89.8365 10.41C89.9965 10.29 90.1265 10.11 90.2265 9.87C90.3265 9.63 90.4165 9.31 90.4965 8.91C90.6365 8.23 90.7265 7.64 90.7665 7.14C90.8265 6.62 90.8665 6.09 90.8865 5.55C90.7465 5.53 90.5865 5.52 90.4065 5.52C90.2265 5.5 90.0465 5.49 89.8665 5.49ZM101.715 21.36C100.595 21.36 99.6851 21.23 98.9851 20.97C98.2851 20.71 97.7351 20.34 97.3351 19.86C96.9551 19.38 96.6951 18.81 96.5551 18.15C96.4351 17.47 96.3751 16.73 96.3751 15.93C96.3751 15.03 96.4351 14.09 96.5551 13.11C96.6951 12.11 96.8751 11.07 97.0951 9.99C97.4151 8.39 97.8051 7.02 98.2651 5.88C98.7451 4.72 99.3351 3.77 100.035 3.03C100.735 2.27 101.565 1.72 102.525 1.38C103.505 1.02 104.675 0.839998 106.035 0.839998C106.615 0.839998 107.235 0.909999 107.895 1.05C108.575 1.19 109.115 1.34 109.515 1.5L108.375 6.18C108.095 6.1 107.665 6.01 107.085 5.91C106.525 5.81 105.915 5.76 105.255 5.76C104.895 5.76 104.585 5.82 104.325 5.94C104.085 6.06 103.865 6.28 103.665 6.6C103.465 6.92 103.275 7.36 103.095 7.92C102.935 8.46 102.755 9.16 102.555 10.02C102.335 10.92 102.155 11.94 102.015 13.08C101.875 14.2 101.775 15.3 101.715 16.38C103.655 16.38 105.345 16.17 106.785 15.75L105.855 20.67C105.655 20.75 105.395 20.83 105.075 20.91C104.755 20.99 104.405 21.06 104.025 21.12C103.645 21.2 103.255 21.26 102.855 21.3C102.455 21.34 102.075 21.36 101.715 21.36ZM121.493 1.2L120.233 6.03H115.793L115.313 8.73H119.723L118.883 13.26H114.473L113.963 16.11H119.033L117.743 21H107.603L111.233 1.2H121.493ZM123.479 1.2H128.939L126.209 16.11H130.229L128.939 21H119.849L123.479 1.2Z" fill="white"/>
</svg>
