<svg width="16" height="17" viewBox="0 0 16 17" fill="none" xmlns="http://www.w3.org/2000/svg">
<path d="M14 11.1667V5.83333C13.9998 5.59952 13.938 5.36987 13.821 5.16744C13.704 4.96501 13.5358 4.79691 13.3333 4.68L8.66667 2.01333C8.46397 1.89631 8.23405 1.8347 8 1.8347C7.76595 1.8347 7.53603 1.89631 7.33333 2.01333L2.66667 4.68C2.46418 4.79691 2.29599 4.96501 2.17897 5.16744C2.06196 5.36987 2.00024 5.59952 2 5.83333V11.1667C2.00024 11.4005 2.06196 11.6301 2.17897 11.8326C2.29599 12.035 2.46418 12.2031 2.66667 12.32L7.33333 14.9867C7.53603 15.1037 7.76595 15.1653 8 15.1653C8.23405 15.1653 8.46397 15.1037 8.66667 14.9867L13.3333 12.32C13.5358 12.2031 13.704 12.035 13.821 11.8326C13.938 11.6301 13.9998 11.4005 14 11.1667Z" stroke="#69656F" stroke-linecap="round" stroke-linejoin="round"/>
<path d="M2.17993 5.14L7.99993 8.50667L13.8199 5.14" stroke="#69656F" stroke-linecap="round" stroke-linejoin="round"/>
<path d="M8 15.22V8.5" stroke="#69656F" stroke-linecap="round" stroke-linejoin="round"/>
</svg>
