<svg width="110" height="22" viewBox="0 0 110 22" fill="none" xmlns="http://www.w3.org/2000/svg">
<path d="M5.76 21.36C4.64 21.36 3.73 21.23 3.03 20.97C2.33 20.71 1.78 20.34 1.38 19.86C1 19.38 0.74 18.81 0.6 18.15C0.48 17.47 0.42 16.73 0.42 15.93C0.42 15.03 0.48 14.09 0.6 13.11C0.74 12.11 0.92 11.07 1.14 9.99C1.46 8.39 1.85 7.02 2.31 5.88C2.79 4.72 3.38 3.77 4.08 3.03C4.78 2.27 5.61 1.72 6.57 1.38C7.55 1.02 8.72 0.839998 10.08 0.839998C10.66 0.839998 11.28 0.909999 11.94 1.05C12.62 1.19 13.16 1.34 13.56 1.5L12.42 6.18C12.14 6.1 11.71 6.01 11.13 5.91C10.57 5.81 9.96 5.76 9.3 5.76C8.94 5.76 8.63 5.82 8.37 5.94C8.13 6.06 7.91 6.28 7.71 6.6C7.51 6.92 7.32 7.36 7.14 7.92C6.98 8.46 6.8 9.16 6.6 10.02C6.38 10.92 6.2 11.94 6.06 13.08C5.92 14.2 5.82 15.3 5.76 16.38C7.7 16.38 9.39 16.17 10.83 15.75L9.9 20.67C9.7 20.75 9.44 20.83 9.12 20.91C8.8 20.99 8.45 21.06 8.07 21.12C7.69 21.2 7.3 21.26 6.9 21.3C6.5 21.34 6.12 21.36 5.76 21.36ZM25.0917 1.02L25.6917 20.91L20.2317 21.27L20.2917 17.91H16.7517L15.7617 21H10.3017L18.2217 1.29L25.0917 1.02ZM20.4117 13.68L20.6217 6.18H20.5617L18.1317 13.68H20.4117ZM30.2189 1.2C30.6189 1.16 31.1189 1.13 31.7189 1.11C32.3389 1.07 32.9689 1.04 33.6089 1.02C34.2689 0.999999 34.9089 0.989998 35.5289 0.989998C36.1489 0.969999 36.6789 0.959999 37.1189 0.959999C38.0989 0.959999 38.9289 1.06 39.6089 1.26C40.2889 1.44 40.8389 1.72 41.2589 2.1C41.6789 2.46 41.9789 2.92 42.1589 3.48C42.3589 4.02 42.4589 4.64 42.4589 5.34C42.4589 5.56 42.4589 5.75 42.4589 5.91C42.4589 6.07 42.4489 6.24 42.4289 6.42C42.4089 6.58 42.3889 6.77 42.3689 6.99C42.3489 7.21 42.3089 7.49 42.2489 7.83C42.0289 9.33 41.6689 10.55 41.1689 11.49C40.6889 12.43 39.9589 13.13 38.9789 13.59L40.5689 20.91L34.9589 21.27L33.9089 14.61L33.1889 14.64L32.0489 21H26.5889L30.2189 1.2ZM36.0989 5.49C35.8989 5.49 35.6589 5.51 35.3789 5.55C35.0989 5.57 34.9189 5.59 34.8389 5.61L33.9089 10.74L34.8389 10.71C35.1189 10.71 35.3589 10.69 35.5589 10.65C35.7589 10.61 35.9289 10.53 36.0689 10.41C36.2289 10.29 36.3589 10.11 36.4589 9.87C36.5589 9.63 36.6489 9.31 36.7289 8.91C36.8689 8.23 36.9589 7.64 36.9989 7.14C37.0589 6.62 37.0989 6.09 37.1189 5.55C36.9789 5.53 36.8189 5.52 36.6389 5.52C36.4589 5.5 36.2789 5.49 36.0989 5.49ZM45.3947 1.2C45.7947 1.16 46.2947 1.13 46.8947 1.11C47.5147 1.07 48.1447 1.04 48.7847 1.02C49.4447 0.999999 50.0847 0.989998 50.7047 0.989998C51.3247 0.969999 51.8547 0.959999 52.2947 0.959999C53.2747 0.959999 54.1047 1.06 54.7847 1.26C55.4647 1.44 56.0147 1.72 56.4347 2.1C56.8547 2.46 57.1547 2.92 57.3347 3.48C57.5347 4.02 57.6347 4.64 57.6347 5.34C57.6347 5.56 57.6347 5.75 57.6347 5.91C57.6347 6.07 57.6247 6.24 57.6047 6.42C57.5847 6.58 57.5647 6.77 57.5447 6.99C57.5247 7.21 57.4847 7.49 57.4247 7.83C57.2047 9.33 56.8447 10.55 56.3447 11.49C55.8647 12.43 55.1347 13.13 54.1547 13.59L55.7447 20.91L50.1347 21.27L49.0847 14.61L48.3647 14.64L47.2247 21H41.7647L45.3947 1.2ZM51.2747 5.49C51.0747 5.49 50.8347 5.51 50.5547 5.55C50.2747 5.57 50.0947 5.59 50.0147 5.61L49.0847 10.74L50.0147 10.71C50.2947 10.71 50.5347 10.69 50.7347 10.65C50.9347 10.61 51.1047 10.53 51.2447 10.41C51.4047 10.29 51.5347 10.11 51.6347 9.87C51.7347 9.63 51.8247 9.31 51.9047 8.91C52.0447 8.23 52.1347 7.64 52.1747 7.14C52.2347 6.62 52.2747 6.09 52.2947 5.55C52.1547 5.53 51.9947 5.52 51.8147 5.52C51.6347 5.5 51.4547 5.49 51.2747 5.49ZM66.0305 1.2L62.4005 21H56.9405L60.5705 1.2H66.0305ZM78.477 1.2L77.217 6.03H72.777L72.297 8.73H76.707L75.867 13.26H71.457L70.947 16.11H76.017L74.727 21H64.587L68.217 1.2H78.477ZM80.463 1.2C80.863 1.16 81.363 1.13 81.963 1.11C82.583 1.07 83.213 1.04 83.853 1.02C84.513 0.999999 85.153 0.989998 85.773 0.989998C86.393 0.969999 86.923 0.959999 87.363 0.959999C88.343 0.959999 89.173 1.06 89.853 1.26C90.533 1.44 91.083 1.72 91.503 2.1C91.923 2.46 92.223 2.92 92.403 3.48C92.603 4.02 92.703 4.64 92.703 5.34C92.703 5.56 92.703 5.75 92.703 5.91C92.703 6.07 92.693 6.24 92.673 6.42C92.653 6.58 92.633 6.77 92.613 6.99C92.593 7.21 92.553 7.49 92.493 7.83C92.273 9.33 91.913 10.55 91.413 11.49C90.933 12.43 90.203 13.13 89.223 13.59L90.813 20.91L85.203 21.27L84.153 14.61L83.433 14.64L82.293 21H76.833L80.463 1.2ZM86.343 5.49C86.143 5.49 85.903 5.51 85.623 5.55C85.343 5.57 85.163 5.59 85.083 5.61L84.153 10.74L85.083 10.71C85.363 10.71 85.603 10.69 85.803 10.65C86.003 10.61 86.173 10.53 86.313 10.41C86.473 10.29 86.603 10.11 86.703 9.87C86.803 9.63 86.893 9.31 86.973 8.91C87.113 8.23 87.203 7.64 87.243 7.14C87.303 6.62 87.343 6.09 87.363 5.55C87.223 5.53 87.063 5.52 86.883 5.52C86.703 5.5 86.523 5.49 86.343 5.49ZM100.413 0.929999L100.623 7.98H100.683L103.563 1.2H109.803L104.193 11.1L106.413 20.91L100.623 21.27L99.693 13.95H99.633L96.783 21H90.693L96.123 10.77L94.653 1.29L100.413 0.929999Z" fill="white"/>
</svg>
