<svg width="33" height="33" viewBox="0 0 33 33" fill="none" xmlns="http://www.w3.org/2000/svg">
<rect width="33" height="33" rx="5" fill="#DF0000"/>
<path d="M12.6548 11.8182V22H11.1186V11.8182H12.6548ZM18.1882 22H14.892V11.8182H18.2926C19.2902 11.8182 20.147 12.022 20.8629 12.4297C21.5788 12.834 22.1274 13.4157 22.5085 14.1747C22.893 14.9304 23.0852 15.8369 23.0852 16.8942C23.0852 17.9548 22.8913 18.8662 22.5036 19.6286C22.1191 20.3909 21.5623 20.9775 20.8331 21.3885C20.1039 21.7962 19.2223 22 18.1882 22ZM16.4283 20.6577H18.1037C18.8793 20.6577 19.5239 20.5118 20.0376 20.2202C20.5514 19.9252 20.9358 19.4993 21.1911 18.9425C21.4463 18.3823 21.5739 17.6996 21.5739 16.8942C21.5739 16.0954 21.4463 15.4176 21.1911 14.8608C20.9392 14.304 20.563 13.8814 20.0625 13.593C19.562 13.3047 18.9406 13.1605 18.1982 13.1605H16.4283V20.6577Z" fill="white"/>
</svg>
