<svg width="17" height="17" viewBox="0 0 17 17" fill="none" xmlns="http://www.w3.org/2000/svg">
<path fill-rule="evenodd" clip-rule="evenodd" d="M8.9895 16.5001C13.4078 16.5001 16.9895 12.9184 16.9895 8.50009C16.9895 4.08181 13.4078 0.500092 8.9895 0.500092C4.57122 0.500092 0.989502 4.08181 0.989502 8.50009C0.989502 12.9184 4.57122 16.5001 8.9895 16.5001ZM8.9896 15.1287C12.6505 15.1287 15.6182 12.1609 15.6182 8.50009C15.6182 4.83923 12.6505 1.87151 8.9896 1.87151C6.77578 1.87151 7.23946 2.95679 7.9519 4.62433C8.41759 5.7143 8.98956 7.05305 8.98956 8.50009C8.98956 9.94713 8.41759 11.2859 7.9519 12.3758C7.23946 14.0434 6.77578 15.1287 8.9896 15.1287Z" fill="#DF0000"/>
</svg>
