<svg width="17" height="17" viewBox="0 0 17 17" fill="none" xmlns="http://www.w3.org/2000/svg">
<g clip-path="url(#clip0_914_2111)">
<path d="M11.1667 2.5H1.16675V11.1667H11.1667V2.5Z" stroke="#69656E" stroke-linecap="round" stroke-linejoin="round"/>
<path d="M11.1667 5.83333H13.8334L15.8334 7.83333V11.1667H11.1667V5.83333Z" stroke="#69656E" stroke-linecap="round" stroke-linejoin="round"/>
<path d="M4.16667 14.5C5.08714 14.5 5.83333 13.7538 5.83333 12.8333C5.83333 11.9129 5.08714 11.1667 4.16667 11.1667C3.24619 11.1667 2.5 11.9129 2.5 12.8333C2.5 13.7538 3.24619 14.5 4.16667 14.5Z" stroke="#69656E" stroke-linecap="round" stroke-linejoin="round"/>
<path d="M12.8334 14.5C13.7539 14.5 14.5001 13.7538 14.5001 12.8333C14.5001 11.9129 13.7539 11.1667 12.8334 11.1667C11.9129 11.1667 11.1667 11.9129 11.1667 12.8333C11.1667 13.7538 11.9129 14.5 12.8334 14.5Z" stroke="#69656E" stroke-linecap="round" stroke-linejoin="round"/>
</g>
<defs>
<clipPath id="clip0_914_2111">
<rect width="16" height="16" fill="white" transform="translate(0.5 0.5)"/>
</clipPath>
</defs>
</svg>
