<svg width="33" height="33" viewBox="0 0 33 33" fill="none" xmlns="http://www.w3.org/2000/svg">
<rect y="0.00012207" width="33" height="33" rx="5" fill="#DF0000"/>
<g clip-path="url(#clip0_933_2800)">
<path d="M17.0001 21.8335C20.2217 21.8335 22.8334 19.2218 22.8334 16.0001C22.8334 12.7785 20.2217 10.1668 17.0001 10.1668C13.7784 10.1668 11.1667 12.7785 11.1667 16.0001C11.1667 19.2218 13.7784 21.8335 17.0001 21.8335Z" stroke="white" stroke-linecap="round" stroke-linejoin="round"/>
<path d="M17 13.5001V16.0001L18.25 17.2501" stroke="white" stroke-linecap="round" stroke-linejoin="round"/>
<path d="M20.7584 20.4585L20.4667 23.6501C20.4292 24.0657 20.2371 24.452 19.9286 24.7328C19.62 25.0136 19.2173 25.1685 18.8001 25.1668H15.1917C14.7745 25.1685 14.3718 25.0136 14.0632 24.7328C13.7546 24.452 13.5626 24.0657 13.5251 23.6501L13.2334 20.4585M13.2417 11.5418L13.5334 8.35012C13.5708 7.93601 13.7617 7.55085 14.0685 7.27024C14.3753 6.98963 14.7759 6.83384 15.1917 6.83345H18.8167C19.234 6.83176 19.6366 6.98661 19.9452 7.26743C20.2538 7.54824 20.4459 7.93458 20.4834 8.35012L20.7751 11.5418" stroke="white" stroke-linecap="round" stroke-linejoin="round"/>
</g>
<defs>
<clipPath id="clip0_933_2800">
<rect width="20" height="20" fill="white" transform="translate(7 6.00012)"/>
</clipPath>
</defs>
</svg>
